REM DIRINDEX 1\3,1\2\4,1\2\5,1\2\6
REM DIRNAME cjc137,folder01,folder02,folder03,folder04,folder05
TITLE ""
FILE "097.mp3" MP3
  TRACK 01 AUDIO
    TITLE "4:cjc137_3993"
    INDEX 01 00:00:00
  TRACK 02 AUDIO
    TITLE "0:"
    INDEX 01 00:01:15
  TRACK 03 AUDIO
    TITLE "6:cjc137_3994"
    INDEX 01 00:01:24
  TRACK 04 AUDIO
    TITLE "0:"
    INDEX 01 00:02:30
  TRACK 05 AUDIO
    TITLE "5:cjc137_3995"
    INDEX 01 00:02:38
  TRACK 06 AUDIO
    TITLE "0:"
    INDEX 01 00:03:51
  TRACK 07 AUDIO
    TITLE "4:cjc137_3996"
    INDEX 01 00:04:60
  TRACK 08 AUDIO
    TITLE "0:"
    INDEX 01 00:06:04
  TRACK 09 AUDIO
    TITLE "6:cjc137_3997"
    INDEX 01 00:06:10
  TRACK 10 AUDIO
    TITLE "0:"
    INDEX 01 00:07:21
  TRACK 11 AUDIO
    TITLE "5:cjc137_3998"
    INDEX 01 00:07:29
  TRACK 12 AUDIO
    TITLE "0:"
    INDEX 01 00:08:48
  TRACK 13 AUDIO
    TITLE "4:cjc137_3999"
    INDEX 01 00:09:55
  TRACK 14 AUDIO
    TITLE "0:"
    INDEX 01 00:10:66
  TRACK 15 AUDIO
    TITLE "6:cjc137_4000"
    INDEX 01 00:10:70
  TRACK 16 AUDIO
    TITLE "0:"
    INDEX 01 00:11:72
  TRACK 17 AUDIO
    TITLE "5:cjc137_4001"
    INDEX 01 00:12:03
  TRACK 18 AUDIO
    TITLE "0:"
    INDEX 01 00:13:12
  TRACK 19 AUDIO
    TITLE "4:cjc137_4002"
    INDEX 01 00:14:19
  TRACK 20 AUDIO
    TITLE "0:"
    INDEX 01 00:15:28
  TRACK 21 AUDIO
    TITLE "6:cjc137_4003"
    INDEX 01 00:15:36
  TRACK 22 AUDIO
    TITLE "0:"
    INDEX 01 00:16:28
  TRACK 23 AUDIO
    TITLE "5:cjc137_4004"
    INDEX 01 00:16:32
  TRACK 24 AUDIO
    TITLE "0:"
    INDEX 01 00:17:39
  TRACK 25 AUDIO
    TITLE "4:cjc137_4005"
    INDEX 01 00:18:48
  TRACK 26 AUDIO
    TITLE "0:"
    INDEX 01 00:19:60
  TRACK 27 AUDIO
    TITLE "6:cjc137_4006"
    INDEX 01 00:19:63
  TRACK 28 AUDIO
    TITLE "0:"
    INDEX 01 00:21:09
  TRACK 29 AUDIO
    TITLE "5:cjc137_4007"
    INDEX 01 00:21:17
  TRACK 30 AUDIO
    TITLE "0:"
    INDEX 01 00:22:27
  TRACK 31 AUDIO
    TITLE "4:cjc137_4008"
    INDEX 01 00:23:36
  TRACK 32 AUDIO
    TITLE "0:"
    INDEX 01 00:24:51
  TRACK 33 AUDIO
    TITLE "6:cjc137_4009"
    INDEX 01 00:24:61
  TRACK 34 AUDIO
    TITLE "0:"
    INDEX 01 00:26:09
  TRACK 35 AUDIO
    TITLE "5:cjc137_4010"
    INDEX 01 00:26:17
  TRACK 36 AUDIO
    TITLE "0:"
    INDEX 01 00:27:34
  TRACK 37 AUDIO
    TITLE "4:cjc137_4011"
    INDEX 01 00:28:43
  TRACK 38 AUDIO
    TITLE "0:"
    INDEX 01 00:29:60
  TRACK 39 AUDIO
    TITLE "6:cjc137_4012"
    INDEX 01 00:29:68
  TRACK 40 AUDIO
    TITLE "0:"
    INDEX 01 00:31:24
  TRACK 41 AUDIO
    TITLE "5:cjc137_4013"
    INDEX 01 00:31:29
  TRACK 42 AUDIO
    TITLE "0:"
    INDEX 01 00:32:45
  TRACK 43 AUDIO
    TITLE "4:cjc137_4014"
    INDEX 01 00:33:54
  TRACK 44 AUDIO
    TITLE "0:"
    INDEX 01 00:35:00
  TRACK 45 AUDIO
    TITLE "6:cjc137_4015"
    INDEX 01 00:35:14
  TRACK 46 AUDIO
    TITLE "0:"
    INDEX 01 00:36:21
  TRACK 47 AUDIO
    TITLE "5:cjc137_4016"
    INDEX 01 00:36:27
  TRACK 48 AUDIO
    TITLE "0:"
    INDEX 01 00:37:52
  TRACK 49 AUDIO
    TITLE "4:cjc137_4017"
    INDEX 01 00:38:65
  TRACK 50 AUDIO
    TITLE "0:"
    INDEX 01 00:40:07
  TRACK 51 AUDIO
    TITLE "6:cjc137_4018"
    INDEX 01 00:40:13
  TRACK 52 AUDIO
    TITLE "0:"
    INDEX 01 00:41:24
  TRACK 53 AUDIO
    TITLE "5:cjc137_4019"
    INDEX 01 00:41:32
  TRACK 54 AUDIO
    TITLE "0:"
    INDEX 01 00:42:51
  TRACK 55 AUDIO
    TITLE "4:cjc137_4020"
    INDEX 01 00:43:58
  TRACK 56 AUDIO
    TITLE "0:"
    INDEX 01 00:45:00
  TRACK 57 AUDIO
    TITLE "6:cjc137_4021"
    INDEX 01 00:45:08
  TRACK 58 AUDIO
    TITLE "0:"
    INDEX 01 00:46:31
  TRACK 59 AUDIO
    TITLE "5:cjc137_4022"
    INDEX 01 00:46:37
  TRACK 60 AUDIO
    TITLE "0:"
    INDEX 01 00:47:54
  TRACK 61 AUDIO
    TITLE "4:cjc137_4023"
    INDEX 01 00:48:65
  TRACK 62 AUDIO
    TITLE "0:"
    INDEX 01 00:50:07
  TRACK 63 AUDIO
    TITLE "6:cjc137_4024"
    INDEX 01 00:50:13
  TRACK 64 AUDIO
    TITLE "0:"
    INDEX 01 00:51:36
  TRACK 65 AUDIO
    TITLE "5:cjc137_4025"
    INDEX 01 00:51:46
  TRACK 66 AUDIO
    TITLE "0:"
    INDEX 01 00:52:63
  TRACK 67 AUDIO
    TITLE "4:cjc137_4026"
    INDEX 01 00:53:70
  TRACK 68 AUDIO
    TITLE "0:"
    INDEX 01 00:55:01
  TRACK 69 AUDIO
    TITLE "6:cjc137_4027"
    INDEX 01 00:55:12
  TRACK 70 AUDIO
    TITLE "0:"
    INDEX 01 00:56:39
  TRACK 71 AUDIO
    TITLE "5:cjc137_4028"
    INDEX 01 00:56:43
  TRACK 72 AUDIO
    TITLE "0:"
    INDEX 01 00:57:48
  TRACK 73 AUDIO
    TITLE "4:cjc137_4029"
    INDEX 01 00:58:62
  TRACK 74 AUDIO
    TITLE "0:"
    INDEX 01 00:59:69
  TRACK 75 AUDIO
    TITLE "6:cjc137_4030"
    INDEX 01 01:00:04
  TRACK 76 AUDIO
    TITLE "0:"
    INDEX 01 01:01:34
  TRACK 77 AUDIO
    TITLE "5:cjc137_4031"
    INDEX 01 01:01:40
  TRACK 78 AUDIO
    TITLE "0:"
    INDEX 01 01:02:48
  TRACK 79 AUDIO
    TITLE "4:cjc137_4032"
    INDEX 01 01:03:59
  TRACK 80 AUDIO
    TITLE "0:"
    INDEX 01 01:04:72
  TRACK 81 AUDIO
    TITLE "6:cjc137_4033"
    INDEX 01 01:05:03
  TRACK 82 AUDIO
    TITLE "0:"
    INDEX 01 01:06:30
  TRACK 83 AUDIO
    TITLE "5:cjc137_4034"
    INDEX 01 01:06:36
  TRACK 84 AUDIO
    TITLE "0:"
    INDEX 01 01:07:51
